<svg xmlns="http://www.w3.org/2000/svg" viewBox="0 0 320 320" role="img" aria-label="Pulseira Ocean branca">
  <defs>
    <linearGradient id="bg" x1="0%" y1="0%" x2="100%" y2="100%">
      <stop offset="0%" stop-color="#1a1d24"/>
      <stop offset="100%" stop-color="#0d0f14"/>
    </linearGradient>
    <linearGradient id="band" x1="0%" y1="0%" x2="100%" y2="100%">
      <stop offset="0%" stop-color="#f9fafb"/>
      <stop offset="50%" stop-color="#e5e7eb"/>
      <stop offset="100%" stop-color="#d1d5db"/>
    </linearGradient>
    <linearGradient id="accent" x1="0%" y1="0%" x2="100%" y2="100%">
      <stop offset="0%" stop-color="#5eead4"/>
      <stop offset="100%" stop-color="#2dd4bf"/>
    </linearGradient>
  </defs>
  <rect width="320" height="320" rx="24" fill="url(#bg)"/>
  <path d="M108 118 Q108 145 125 155 Q108 175 108 200 Q108 220 160 228 Q212 220 212 200 Q212 175 195 155 Q212 145 212 118 Q212 100 160 100 Q108 100 108 118" fill="none" stroke="url(#band)" stroke-width="20" stroke-linecap="round"/>
  <path d="M115 130 Q130 142 145 130 M175 130 Q190 142 205 130 M115 175 Q130 187 145 175 M175 175 Q190 187 205 175" fill="none" stroke="#9ca3af" stroke-width="3" stroke-linecap="round" opacity="0.45"/>
  <rect x="148" y="108" width="24" height="20" rx="6" fill="#9ca3af" stroke="url(#accent)" stroke-width="1.5"/>
  <text x="160" y="268" text-anchor="middle" fill="#94a3b8" font-family="system-ui,sans-serif" font-size="13" font-weight="600">OCEAN · BRANCA</text>
</svg>
