<?xml version="1.0" encoding="UTF-8"?>
<svg xmlns="http://www.w3.org/2000/svg" viewBox="0 0 320 320" role="img" aria-label="Pulseira de Silicone Ocean Esportiva — verde oliva (42/44/45/49mm)">
  <defs>
    <linearGradient id="bgpulseiraoceanverde4249" x1="0%" y1="0%" x2="100%" y2="100%">
      <stop offset="0%" stop-color="#1a1d24"/>
      <stop offset="100%" stop-color="#0d0f14"/>
    </linearGradient>
    
    <linearGradient id="bandpulseiraoceanverde4249" x1="0%" y1="0%" x2="100%" y2="100%">
      <stop offset="0%" stop-color="#65a30d"/>
      <stop offset="50%" stop-color="#4d7c0f"/>
      <stop offset="100%" stop-color="#365314"/>
    </linearGradient>
    <linearGradient id="accentpulseiraoceanverde4249" x1="0%" y1="0%" x2="100%" y2="100%">
      <stop offset="0%" stop-color="#5eead4"/>
      <stop offset="100%" stop-color="#2dd4bf"/>
    </linearGradient>
  </defs>
  <rect width="320" height="320" rx="20" fill="url(#bgpulseiraoceanverde4249)"/>
  <text x="160" y="36" text-anchor="middle" fill="#2dd4bf" font-family="system-ui,sans-serif" font-size="10" font-weight="700" letter-spacing="1">OCEAN BAND</text>
  
  <rect x="148" y="108" width="24" height="20" rx="6" fill="#1e293b" stroke="url(#accentpulseiraoceanverde4249)" stroke-width="1.5"/>
  <circle cx="160" cy="138" r="34" fill="#0f172a" stroke="#334155" stroke-width="2"/>
  <circle cx="160" cy="138" r="28" fill="url(#accentpulseiraoceanverde4249)" opacity="0.08"/>
  
      <path d="M108 118 Q108 200 160 228 Q212 200 212 118" fill="none" stroke="url(#bandpulseiraoceanverde4249)" stroke-width="22" stroke-linecap="round"/>
      <path d="M115 140 Q160 155 205 140" fill="none" stroke="#fff" stroke-width="1.2" opacity="0.18"/>
      <path d="M112 165 Q160 180 208 165" fill="none" stroke="#fff" stroke-width="1" opacity="0.14"/>
      <path d="M110 190 Q160 205 210 190" fill="none" stroke="#fff" stroke-width="1" opacity="0.12"/>
  <rect x="24" y="218" width="272" height="82" rx="12" fill="#000" fill-opacity="0.25"/>
  <text x="160" y="246" text-anchor="middle" fill="#e2e8f0" font-family="system-ui,sans-serif" font-size="12" font-weight="700">Ocean Band · silicone</text>
  <text x="160" y="266" text-anchor="middle" fill="#94a3b8" font-family="system-ui,sans-serif" font-size="11" font-weight="600">verde oliva · 42/44/45/49 mm</text>
  <text x="160" y="302" text-anchor="middle" fill="#64748b" font-family="system-ui,sans-serif" font-size="10">R$ 20,00 · Sensor Tattoo Fix</text>
</svg>